<?xml version="1.0" standalone="no"?>
<!DOCTYPE svg PUBLIC "-//W3C//DTD SVG 20010904//EN"
 "http://www.w3.org/TR/2001/REC-SVG-20010904/DTD/svg10.dtd">
<svg version="1.0" xmlns="http://www.w3.org/2000/svg"
 width="64.000000pt" height="64.000000pt" viewBox="0 0 64.000000 64.000000"
 preserveAspectRatio="xMidYMid meet">

<g transform="translate(0.000000,64.000000) scale(0.100000,-0.100000)"
fill="#000000" stroke="none">
<path d="M87 553 c-4 -3 -7 -17 -7 -30 0 -18 -5 -23 -25 -23 l-25 0 2 -172 3
-173 80 -13 c44 -7 101 -24 127 -37 60 -31 96 -31 156 0 26 13 83 30 127 37
l80 13 3 173 2 172 -25 0 c-20 0 -25 5 -25 24 0 14 -4 27 -9 30 -17 11 -151
-14 -191 -34 l-40 -20 -40 20 c-21 11 -70 24 -107 30 -82 12 -78 12 -86 3z
m181 -52 l42 -21 0 -155 0 -155 -39 19 c-21 11 -68 24 -102 28 l-64 8 -3 154
-3 154 64 -5 c35 -3 81 -15 105 -27z m270 -123 l-3 -153 -64 -8 c-34 -4 -81
-17 -102 -28 l-39 -19 0 155 0 154 32 17 c48 25 77 32 131 33 l48 1 -3 -152z
m-456 -35 l3 -138 68 -7 c65 -8 112 -23 150 -50 14 -10 20 -10 35 0 37 27 84
42 149 50 l68 7 3 138 c2 113 5 137 17 137 13 0 15 -25 15 -154 l0 -154 -75
-11 c-42 -6 -98 -22 -125 -36 -27 -14 -59 -25 -70 -25 -11 0 -43 11 -70 25
-27 14 -83 30 -125 36 l-75 11 0 154 c0 129 2 154 15 154 12 0 15 -24 17 -137z"/>
<path d="M142 479 c3 -8 22 -17 44 -20 21 -3 51 -9 67 -14 17 -4 27 -3 27 4 0
10 -33 21 -109 36 -26 6 -32 4 -29 -6z"/>
<path d="M140 413 c0 -6 24 -15 53 -21 28 -6 60 -14 70 -17 26 -11 20 10 -7
23 -35 16 -116 26 -116 15z"/>
<path d="M140 344 c0 -10 129 -38 137 -30 3 2 -5 9 -16 16 -28 15 -121 25
-121 14z"/>
<path d="M142 279 c3 -8 22 -17 44 -20 21 -3 53 -10 69 -14 26 -7 28 -6 17 7
-7 9 -29 19 -50 23 -20 3 -48 9 -61 12 -17 4 -22 2 -19 -8z"/>
<path d="M430 478 c-25 -5 -52 -17 -60 -25 -13 -14 -12 -15 15 -8 17 5 48 11
69 14 22 3 41 12 44 19 4 14 -5 14 -68 0z"/>
<path d="M435 413 c-37 -8 -75 -25 -70 -32 5 -9 135 21 135 31 0 8 -30 9 -65
1z"/>
<path d="M403 339 c-46 -13 -56 -34 -12 -25 19 4 51 10 72 13 20 3 37 10 37
14 0 11 -55 10 -97 -2z"/>
<path d="M430 278 c-25 -5 -52 -17 -60 -25 -13 -14 -12 -15 15 -8 17 5 48 11
69 14 22 3 41 12 44 19 4 14 -5 14 -68 0z"/>
</g>
</svg>
