<?xml version="1.0" encoding="UTF-8"?>
<svg width="22px" height="22px" viewBox="0 0 22 22" version="1.1" xmlns="http://www.w3.org/2000/svg" xmlns:xlink="http://www.w3.org/1999/xlink">
    <!-- Generator: sketchtool 48.1 (47250) - http://www.bohemiancoding.com/sketch -->
    <title>F603AB36-332C-4182-A602-E9E33AEE473B</title>
    <desc>Created with sketchtool.</desc>
    <defs></defs>
    <g id="Forside-2---Vikar(Mobil)" stroke="none" stroke-width="1" fill="none" fill-rule="evenodd" transform="translate(-34.000000, -348.000000)">
        <g id="magnifier-2" transform="translate(34.000000, 348.000000)" fill="#BF311A">
            <path d="M20.559474,20.7781661 C20.0549635,21.2870219 19.3845312,21.5673981 18.6722812,21.5673981 C17.9600312,21.5673981 17.289599,21.2870219 16.785763,20.7788401 L12.0711536,16.0117712 C11.5666432,15.5035893 11.2894323,14.8269122 11.2894323,14.1064263 C11.2894323,13.61779 11.4263516,13.1534169 11.6657917,12.7436364 L10.8854193,11.9550784 C9.73543229,12.9074138 8.26709115,13.4796238 6.66857552,13.4796238 C2.9913151,13.4796238 0,10.4554702 0,6.73981191 C0,3.02347962 2.9913151,0 6.66857552,0 C10.3451615,0 13.337151,3.02347962 13.337151,6.73981191 C13.337151,8.35534483 12.7699141,9.84012539 11.8283411,11.002069 L12.6087135,11.7913009 C13.01475,11.5493417 13.4740703,11.4105016 13.9576719,11.4105016 C14.6699219,11.4105016 15.3396797,11.6915517 15.8428411,12.2004075 L20.5587995,16.9661285 C21.5981719,18.0168652 21.5981719,19.7274295 20.559474,20.7781661 Z M12.0030312,6.73981191 C12.0030312,3.76688088 9.60997917,1.34796238 6.66857552,1.34796238 C3.7264974,1.34796238 1.33344531,3.76688088 1.33344531,6.73981191 C1.33344531,9.71274295 3.7264974,12.1316614 6.66857552,12.1316614 C9.60997917,12.1316614 12.0030312,9.71274295 12.0030312,6.73981191 Z M19.6158776,17.9191379 L14.8999193,13.1534169 C14.6483385,12.898652 14.3137969,12.7584639 13.9576719,12.7584639 C13.6008724,12.7584639 13.2656562,12.898652 13.0140755,13.1534169 C12.7618203,13.4075078 12.6228776,13.7465204 12.6228776,14.1064263 C12.6228776,14.4663323 12.7618203,14.8046708 13.0140755,15.0587618 L17.7286849,19.8251567 C18.2318464,20.3333386 19.1120417,20.3333386 19.6165521,19.8244828 C20.1352266,19.3001254 20.1352266,18.4441693 19.6158776,17.9191379 Z" id="Shape"></path>
        </g>
    </g>
</svg>