<?xml version="1.0" standalone="no"?>
<!DOCTYPE svg PUBLIC "-//W3C//DTD SVG 20010904//EN"
 "http://www.w3.org/TR/2001/REC-SVG-20010904/DTD/svg10.dtd">
<svg version="1.0" xmlns="http://www.w3.org/2000/svg"
 width="64.000000pt" height="64.000000pt" viewBox="0 0 64.000000 64.000000"
 preserveAspectRatio="xMidYMid meet">

<g transform="translate(0.000000,64.000000) scale(0.100000,-0.100000)"
fill="#000000" stroke="none">
<path d="M163 517 c-79 -39 -143 -74 -143 -77 0 -3 68 -39 150 -80 l150 -75
135 68 c74 37 137 67 140 67 3 0 5 -76 5 -170 0 -163 1 -170 20 -170 19 0 20
7 20 178 l0 177 -155 78 c-85 42 -161 77 -168 76 -6 0 -76 -32 -154 -72z"/>
<path d="M120 267 l0 -83 100 -49 100 -49 100 49 100 49 0 83 c0 46 -2 83 -5
83 -3 0 -48 -21 -100 -47 l-95 -48 -95 48 c-52 26 -97 47 -100 47 -3 0 -5 -37
-5 -83z"/>
</g>
</svg>
