<?xml version="1.0" standalone="no"?>
<!DOCTYPE svg PUBLIC "-//W3C//DTD SVG 20010904//EN"
 "http://www.w3.org/TR/2001/REC-SVG-20010904/DTD/svg10.dtd">
<svg version="1.0" xmlns="http://www.w3.org/2000/svg"
 width="64.000000pt" height="64.000000pt" viewBox="0 0 64.000000 64.000000"
 preserveAspectRatio="xMidYMid meet">

<g transform="translate(0.000000,64.000000) scale(0.100000,-0.100000)"
fill="#000000" stroke="none">
<path d="M110 608 c-35 -58 -20 -112 41 -143 29 -15 29 -16 29 -106 0 -50 -5
-145 -11 -211 -10 -106 -9 -122 5 -136 30 -30 44 3 54 131 10 114 15 137 28
124 3 -3 10 -59 16 -124 11 -126 23 -158 53 -133 14 11 15 28 9 109 -6 86 -9
98 -32 117 -24 20 -25 24 -19 98 8 88 26 129 67 155 17 10 27 20 24 24 -3 3
-20 -3 -37 -14 -41 -24 -120 -25 -167 -1 -41 20 -50 57 -25 96 16 24 14 46 -6
46 -5 0 -18 -15 -29 -32z"/>
<path d="M345 630 c-3 -5 -2 -17 3 -26 8 -14 10 -14 21 0 13 15 8 36 -9 36 -5
0 -12 -4 -15 -10z"/>
<path d="M215 595 c-14 -13 -25 -29 -25 -35 0 -6 11 -22 25 -35 13 -14 29 -25
35 -25 6 0 22 11 35 25 14 13 25 29 25 35 0 6 -11 22 -25 35 -13 14 -29 25
-35 25 -6 0 -22 -11 -35 -25z m63 -66 c-12 -7 -24 -7 -35 0 -15 9 -12 10 17
10 29 0 32 -1 18 -10z"/>
<path d="M392 604 c-26 -18 -30 -65 -7 -84 22 -18 66 -15 82 6 19 25 16 51 -7
74 -24 24 -38 25 -68 4z m34 -76 c-16 -9 -36 -3 -36 11 0 5 12 6 26 3 22 -4
24 -6 10 -14z"/>
<path d="M324 453 c-26 -40 -34 -213 -10 -213 13 0 16 12 17 63 1 34 5 73 9
87 5 15 8 -55 9 -167 1 -158 4 -194 16 -207 9 -8 22 -13 30 -10 12 5 15 30 15
129 0 72 4 126 10 130 6 4 10 -38 10 -118 0 -99 3 -127 15 -137 12 -10 18 -10
30 0 12 10 15 47 15 213 0 201 11 256 20 104 4 -64 8 -82 20 -82 12 0 15 16
15 87 0 72 -4 92 -21 115 -20 26 -27 28 -101 31 -78 3 -81 2 -99 -25z"/>
</g>
</svg>
