<?xml version="1.0" encoding="UTF-8"?>
<svg width="22px" height="21px" viewBox="0 0 22 21" version="1.1" xmlns="http://www.w3.org/2000/svg" xmlns:xlink="http://www.w3.org/1999/xlink">
    <!-- Generator: sketchtool 48.1 (47250) - http://www.bohemiancoding.com/sketch -->
    <title>99CE7124-F365-4416-A95F-9406D754936C</title>
    <desc>Created with sketchtool.</desc>
    <defs></defs>
    <g id="Forside-2---Vikar(Mobil)" stroke="none" stroke-width="1" fill="none" fill-rule="evenodd" transform="translate(-33.000000, -514.000000)">
        <g id="icon" transform="translate(24.000000, 505.000000)" fill="#BF311A">
            <g id="chat-3" transform="translate(9.000000, 9.000000)">
                <path d="M21.1118724,20.8624138 C21.045099,20.8833072 20.9763021,20.8934169 20.9088542,20.8934169 C20.6930208,20.8934169 20.4852812,20.7896238 20.3564557,20.605627 L18.1967734,17.523511 L8.14433594,17.523511 C7.00041927,17.523511 6.0703125,16.5940909 6.0703125,15.4516928 L6.0703125,13.4796238 C6.0703125,13.1075862 6.37247917,12.8056426 6.74479167,12.8056426 C7.11710417,12.8056426 7.41927083,13.1075862 7.41927083,13.4796238 L7.41927083,15.4516928 C7.41927083,15.8506897 7.74436979,16.1755486 8.14433594,16.1755486 L18.5481771,16.1755486 C18.5684115,16.1755486 18.5852734,16.1849843 18.6055078,16.1870063 C18.6513724,16.1910502 18.6938646,16.2004859 18.7383802,16.2139655 C18.7795234,16.2260972 18.8186432,16.2395768 18.8557396,16.2591223 C18.8935104,16.2779937 18.9265599,16.3022571 18.9602839,16.3292163 C18.9967057,16.3581975 19.0290807,16.3878527 19.0594323,16.4235737 C19.0715729,16.4384013 19.0891094,16.446489 19.1005755,16.4633386 L20.234375,18.0808934 L20.234375,16.8495298 L20.234375,8.13899687 C20.234375,7.73932602 19.909276,7.4137931 19.5093099,7.4137931 L17.5364583,7.4137931 C17.1641458,7.4137931 16.8619792,7.11184953 16.8619792,6.73981191 C16.8619792,6.36777429 17.1641458,6.06583072 17.5364583,6.06583072 L19.5093099,6.06583072 C20.6532266,6.06583072 21.5833333,6.99592476 21.5833333,8.13899687 L21.5833333,16.8495298 L21.5833333,20.2194357 C21.5833333,20.5132915 21.3924557,20.7741223 21.1118724,20.8624138 Z M13.4389974,11.4576803 L3.3865599,11.4576803 L1.2268776,14.5397962 C1.09805208,14.7237931 0.8903125,14.8275862 0.674479167,14.8275862 C0.60703125,14.8275862 0.538234375,14.8174765 0.471460937,14.7965831 C0.190877604,14.7082915 0,14.4481348 0,14.153605 L0,10.7836991 L0,2.02194357 C0,0.88830721 0.911221354,0 2.07402344,0 L13.4389974,0 C14.6017995,0 15.5130208,0.88830721 15.5130208,2.02194357 L15.5130208,9.38586207 C15.5130208,10.5282602 14.5829141,11.4576803 13.4389974,11.4576803 Z M14.1640625,2.02194357 C14.1640625,1.63777429 13.8524531,1.34796238 13.4389974,1.34796238 L2.07402344,1.34796238 C1.66056771,1.34796238 1.34895833,1.63777429 1.34895833,2.02194357 L1.34895833,10.7836991 L1.34895833,12.0157367 L2.48275781,10.3975078 C2.49354948,10.3813323 2.51108594,10.3732445 2.52390104,10.3584169 C2.5542526,10.3220219 2.58730208,10.2916928 2.62439844,10.2627116 C2.65744792,10.2364263 2.6904974,10.212837 2.72691927,10.1932915 C2.7646901,10.1737461 2.80313542,10.1609404 2.84495312,10.1481348 C2.88946875,10.1346552 2.93263542,10.1252194 2.97984896,10.1211755 C2.99873437,10.1198276 3.01559635,10.1097179 3.03515625,10.1097179 L13.4389974,10.1097179 C13.8389635,10.1097179 14.1640625,9.78485893 14.1640625,9.38586207 L14.1640625,2.02194357 Z" id="Shape"></path>
            </g>
        </g>
    </g>
</svg>