<?xml version="1.0" encoding="UTF-8"?>
<svg width="22px" height="22px" viewBox="0 0 22 22" version="1.1" xmlns="http://www.w3.org/2000/svg" xmlns:xlink="http://www.w3.org/1999/xlink">
    <!-- Generator: sketchtool 48.1 (47250) - http://www.bohemiancoding.com/sketch -->
    <title>39A17D56-47EC-4675-9BC5-99CB378F0750</title>
    <desc>Created with sketchtool.</desc>
    <defs></defs>
    <g id="Forside-2---Vikar(Mobil)" stroke="none" stroke-width="1" fill="none" fill-rule="evenodd" transform="translate(-33.000000, -401.000000)">
        <g id="icon" transform="translate(24.000000, 394.000000)" fill="#BF311A">
            <g id="user-female" transform="translate(9.117188, 7.413793)">
                <path d="M20.234375,21.5673981 L1.34895833,21.5673981 C0.605007812,21.5673981 -1.0658141e-14,20.962837 -1.0658141e-14,20.2201097 L-1.0658141e-14,18.8721473 C-1.0658141e-14,18.6254702 0.134895833,18.3983386 0.351403646,18.2803918 L6.96804427,14.6739185 L3.27729427,14.1482132 C3.00413021,14.1091223 2.78222656,13.9082759 2.71680208,13.6407053 C2.65205208,13.3731348 2.75592187,13.0927586 2.98052344,12.9323511 C4.69842187,11.7063793 5.30747656,6.56188088 5.39650781,4.6834953 C5.39785677,4.65653605 5.40055469,4.6295768 5.40527604,4.60329154 C5.85717708,1.93634796 8.12207812,0 10.7916667,0 C13.4612552,0 15.7261562,1.93634796 16.1780573,4.60329154 C16.1827786,4.6295768 16.1854766,4.65653605 16.1868255,4.6834953 C16.2772057,6.56255486 16.8869349,11.7077273 18.6028099,12.9323511 C18.8274115,13.0927586 18.9312812,13.3731348 18.8665312,13.6407053 C18.8004323,13.9082759 18.5792031,14.1091223 18.3060391,14.1482132 L14.6146146,14.6745925 L21.2319297,18.2803918 C21.4484375,18.3983386 21.5833333,18.6254702 21.5833333,18.8721473 L21.5833333,20.2201097 C21.5833333,20.962837 20.9783255,21.5673981 20.234375,21.5673981 Z M20.234375,20.2201097 L20.234375,20.8934169 L20.234375,20.2201097 Z M1.34895833,19.2718182 L1.34895833,20.2201097 L20.2316771,20.2201097 L20.2337005,19.2711442 L13.758026,15.7428527 C13.322987,15.5049373 12.8151042,15.0344984 12.8151042,14.4919436 C12.8151042,13.9487147 13.3277083,13.4971473 14.0615417,13.3920063 L16.8599557,12.9930094 C15.1946667,10.4783856 14.8817083,5.59134796 14.8412396,4.78998433 C14.4851146,2.79297806 12.788125,1.34796238 10.7916667,1.34796238 C8.79520833,1.34796238 7.09821875,2.79297806 6.74209375,4.78998433 C6.701625,5.59134796 6.38866667,10.4783856 4.7233776,12.9930094 L7.52111719,13.3920063 C8.255625,13.4971473 8.76822917,13.9487147 8.76822917,14.4919436 C8.76822917,15.0351724 8.25967187,15.5049373 7.82395833,15.7428527 L1.34895833,19.2718182 Z" id="Shape"></path>
            </g>
        </g>
    </g>
</svg>